<?xml version="1.0" encoding="utf-8"?>
<!-- Generator: Adobe Illustrator 16.0.3, SVG Export Plug-In . SVG Version: 6.00 Build 0)  -->
<!DOCTYPE svg PUBLIC "-//W3C//DTD SVG 1.1//EN" "http://www.w3.org/Graphics/SVG/1.1/DTD/svg11.dtd">
<svg version="1.1" id="Layer_1" xmlns="http://www.w3.org/2000/svg" xmlns:xlink="http://www.w3.org/1999/xlink" x="0px" y="0px"
	 width="354.016px" height="51.069px" viewBox="0 0 354.016 51.069" enable-background="new 0 0 354.016 51.069"
	 xml:space="preserve">
<g class="logo">
	<defs>
		<rect id="SVGID_1_" y="0" width="354.016" height="51.069"/>
	</defs>
	<clipPath id="SVGID_2_">
		<use xlink:href="#SVGID_1_"  overflow="visible"/>
	</clipPath>
	<path clip-path="url(#SVGID_2_)" fill="#233354" d="M250.578,45.239h0.597c0.339,0,0.339,0.011,0.339,0.21v2.967l-3.678-3.706
		h-2.487l0.08,0.529h0.93v4.486c0,0.184,0,0.229-0.448,0.229h-0.465l-0.097,0.531h2.646l-0.086-0.531h-0.533
		c-0.446,0-0.446-0.045-0.446-0.229v-3.967l4.738,4.772h0.424v-5.082c0-0.199,0-0.21,0.34-0.21h0.57l0.093-0.529h-2.614
		L250.578,45.239z"/>
	<path clip-path="url(#SVGID_2_)" fill="#233354" d="M197.939,44.71h-0.021h-6.563h-0.018l0.018,0.005l-0.118,1.979h0.575
		c0.116-1.098,0.682-1.458,2.071-1.454h0.018v4.715h-1.004l-0.072,0.531h3.625l-0.105-0.531h-0.973v-4.715h0.017
		c1.388-0.004,1.96,0.356,2.073,1.454h0.576L197.939,44.71z"/>
	<path clip-path="url(#SVGID_2_)" fill="#233354" d="M188.925,48.516c0,1.062-0.542,1.438-2.299,1.438h-1.228v-2.138h0.57
		c0.997,0,0.997,0.274,0.997,0.727v0.205h0.576v-2.439h-0.576v0.209c0,0.358,0,0.768-0.986,0.768h-0.581v-2.046h1.437
		c1.696,0,1.696,0.938,1.696,1.175h0.598l-0.163-1.704h-5.962l0.134,0.529h0.786v4.715h-0.786l-0.134,0.531h6.321l0.18-1.97H188.925
		z"/>
	<path clip-path="url(#SVGID_2_)" fill="#233354" d="M180.809,48.516c0,1.062-0.543,1.438-2.296,1.438h-1.229v-2.138h0.568
		c0.994,0,0.994,0.274,0.994,0.727v0.205h0.58v-2.439h-0.58v0.209c0,0.358,0,0.768-0.982,0.768h-0.58v-2.046h1.434
		c1.697,0,1.697,0.938,1.697,1.175h0.598l-0.164-1.704h-5.961l0.133,0.529h0.787v4.715h-0.787l-0.133,0.531h6.321l0.181-1.97
		H180.809z"/>
	<path clip-path="url(#SVGID_2_)" fill="#233354" d="M101.676,45.239h0.947v4.486c0,0.127,0.067,0.216,0.114,0.283
		c0.054,0.071,0.105,0.131,0.105,0.293c0,0.194-0.333,0.231-0.611,0.231c-0.033,0-0.061-0.002-0.092-0.002
		c0.135-0.07,0.255-0.19,0.255-0.411c0-0.327-0.29-0.556-0.709-0.556c-0.46,0-0.767,0.262-0.767,0.654
		c0,0.423,0.405,0.851,1.313,0.851c1.132,0,1.865-0.627,1.865-1.597v-4.233h0.895l0.15-0.529h-3.567L101.676,45.239z"/>
	<path clip-path="url(#SVGID_2_)" fill="#233354" d="M112.084,48.514c0,1.062-0.547,1.444-2.302,1.444h-1.224v-2.142h0.567
		c0.996,0,0.996,0.274,0.996,0.729v0.203h0.577v-2.439h-0.577v0.209c0,0.358,0,0.767-0.984,0.767h-0.579v-2.045h1.434
		c1.696,0,1.696,0.938,1.696,1.175h0.595l-0.164-1.704h-5.957l0.131,0.529h0.791v4.719h-0.791l-0.131,0.527h6.32l0.18-1.972H112.084
		z"/>
	<path clip-path="url(#SVGID_2_)" fill="#233354" d="M126.238,48.534l-2.068-3.824h-2.344l0.123,0.529h0.797v4.284
		c0,0.389,0,0.435-0.442,0.435h-0.335l-0.143,0.527h2.563l-0.124-0.527h-0.5c-0.441,0-0.441-0.046-0.441-0.435v-3.341l2.285,4.185
		h0.338l2.24-4.252v3.843h-0.867l-0.113,0.527h3.377l-0.116-0.527h-0.804v-4.719h0.804l0.116-0.529h-2.313L126.238,48.534z"/>
	<path clip-path="url(#SVGID_2_)" fill="#233354" d="M136.34,45.239h0.484c0.157,0,0.232,0.016,0.264,0.028
		c-0.016,0.096-0.098,0.246-0.239,0.48l-1.12,1.84l-1.387-2.349h0.609l0.104-0.529h-3.451l0.125,0.529h0.915l1.864,3.133v1.586
		h-0.982l-0.124,0.527h3.69l-0.102-0.527h-1.005v-1.706l1.663-2.689c0.126-0.21,0.197-0.323,0.48-0.323h0.528l0.118-0.529h-2.551
		L136.34,45.239z"/>
	<path clip-path="url(#SVGID_2_)" fill="#233354" d="M144.955,45.239h0.591c0.339,0,0.339,0.011,0.339,0.21v2.967l-3.678-3.706
		h-2.486l0.138,0.529h0.866v4.486c0,0.182,0,0.232-0.444,0.232h-0.455l-0.105,0.527h2.644l-0.078-0.527h-0.543
		c-0.443,0-0.443-0.051-0.443-0.232v-3.967l4.732,4.772h0.431v-5.082c0-0.199,0-0.21,0.335-0.21h0.546l0.12-0.529h-2.615
		L144.955,45.239z"/>
	<path clip-path="url(#SVGID_2_)" fill="#233354" d="M157.074,44.762h0.524v2.009h-0.556l-0.023-0.18
		c-0.099-0.925-0.821-1.473-1.939-1.473c-0.794,0-1.305,0.362-1.305,0.921c0,0.47,0.086,0.623,1.908,0.868
		c1.438,0.184,2.329,0.543,2.329,1.751c0,0.941-0.651,1.947-2.471,1.947c-0.681,0-1.166-0.158-1.524-0.275l-0.232-0.1l-0.285,0.301
		h-0.576v-2.34h0.576v0.205c0,1.562,1.595,1.681,2.086,1.681c0.891,0,1.517-0.39,1.517-0.948c0-0.598-0.369-0.821-1.584-0.961
		c-1.613-0.188-2.595-0.409-2.595-1.875c0-1.008,0.887-1.709,2.156-1.709c0.73,0,1.166,0.198,1.488,0.343
		c0.149,0.071,0.2,0.101,0.273,0.146L157.074,44.762z"/>
	<path clip-path="url(#SVGID_2_)" fill="#233354" d="M209.434,48.325c-0.137,1.227-0.836,1.626-2.426,1.629h-1.103v-4.715h0.943
		l0.099-0.529h-3.563l0.076,0.529h0.968v4.715h-0.968l-0.076,0.531h6.491l0.138-2.16H209.434z"/>
	<path clip-path="url(#SVGID_2_)" fill="#233354" d="M214.839,44.584c-1.934,0-3.509,1.351-3.509,3.014
		c0,1.661,1.575,3.008,3.509,3.008c1.933,0,3.504-1.347,3.504-3.008C218.343,45.935,216.771,44.584,214.839,44.584 M214.839,45.119
		c1.575,0,1.905,1.35,1.905,2.479c0,1.131-0.33,2.48-1.905,2.48c-1.574,0-1.905-1.35-1.905-2.48
		C212.934,46.469,213.265,45.119,214.839,45.119"/>
	<path clip-path="url(#SVGID_2_)" fill="#233354" d="M224.881,45.239h0.604c0.339,0,0.339,0.011,0.339,0.21v2.967l-3.683-3.706
		h-2.485l0.075,0.529h0.928v4.486c0,0.184,0,0.229-0.44,0.229h-0.471l-0.092,0.531h2.648l-0.09-0.531h-0.534
		c-0.44,0-0.44-0.045-0.44-0.229v-3.967l4.729,4.772h0.43v-5.082c0-0.199,0-0.21,0.34-0.21h0.57l0.094-0.529h-2.616L224.881,45.239z
		"/>
	<path clip-path="url(#SVGID_2_)" fill="#233354" d="M231.824,44.71h-3.476l0.09,0.529h0.904v4.715h-0.904l-0.09,0.531h3.486
		c2.28,0,3.756-1.132,3.756-2.888C235.591,46.523,234.797,44.71,231.824,44.71 M230.817,45.239h0.31
		c2.537,0,2.865,1.264,2.865,2.358c0,1.563-0.84,2.356-2.48,2.356h-0.694V45.239z"/>
	<path clip-path="url(#SVGID_2_)" fill="#233354" d="M240.531,44.584c-1.932,0-3.507,1.351-3.507,3.014
		c0,1.661,1.575,3.008,3.507,3.008c1.935,0,3.51-1.347,3.51-3.008C244.041,45.935,242.466,44.584,240.531,44.584 M240.531,45.119
		c1.578,0,1.907,1.35,1.907,2.479c0,1.131-0.329,2.48-1.907,2.48c-1.571,0-1.902-1.35-1.902-2.48
		C238.629,46.469,238.96,45.119,240.531,45.119"/>
	<path clip-path="url(#SVGID_2_)" fill="#233354" d="M166.059,44.71h-0.018h-6.563h-0.013l0.013,0.005l-0.119,1.979h0.577
		c0.115-1.098,0.684-1.458,2.075-1.454h0.013v4.719h-1.003l-0.071,0.527h3.625l-0.107-0.527H163.5v-4.719h0.014
		c1.389-0.004,1.96,0.356,2.07,1.454h0.578L166.059,44.71z"/>
	<path clip-path="url(#SVGID_2_)" fill="#233354" d="M120.185,49.941c-0.083,0.031-0.256,0.074-0.383,0.074
		c-0.118,0-0.266,0-0.314-0.318l-0.132-0.928c-0.111-0.752-0.464-1.093-0.967-1.258c0.773-0.244,1.187-0.662,1.187-1.23
		c0-1.528-1.873-1.528-2.489-1.528h-3.135l0.134,0.497h0.824v4.719h-0.824l-0.134,0.496h3.294l-0.138-0.496h-0.842v-2.188h0.434
		c1.035,0,1.089,0.396,1.14,0.75l0.071,0.478c0.134,0.868,0.23,1.503,1.555,1.503c0.404,0,0.671-0.056,0.836-0.106
		c0.215-0.064,0.457-0.22,0.457-0.22l-0.242-0.415C120.517,49.771,120.313,49.896,120.185,49.941 M116.266,45.25h0.465
		c1.267,0,1.431,0.553,1.431,1.031c0,0.498-0.189,1.002-1.603,1.002h-0.293V45.25z"/>
	<path clip-path="url(#SVGID_2_)" fill="#233354" d="M173.402,49.93c-0.08,0.029-0.252,0.073-0.381,0.073
		c-0.12,0-0.263,0-0.312-0.316l-0.135-0.927c-0.106-0.753-0.462-1.094-0.965-1.262c0.774-0.242,1.188-0.661,1.188-1.227
		c0-1.528-1.875-1.528-2.49-1.528h-3.135l0.134,0.494h0.825v4.721h-0.825l-0.134,0.494l3.294,0.001l-0.136-0.499l-0.842,0.004v-2.19
		h0.435c1.032,0,1.089,0.4,1.138,0.751l0.068,0.478c0.134,0.871,0.236,1.504,1.556,1.504c0.404,0,0.675-0.055,0.842-0.104
		c0.209-0.07,0.452-0.224,0.452-0.224l-0.243-0.411C173.736,49.762,173.533,49.885,173.402,49.93 M169.488,45.237h0.463
		c1.272,0,1.435,0.556,1.435,1.034c0,0.494-0.191,1-1.609,1h-0.289V45.237z"/>
	<path clip-path="url(#SVGID_2_)" fill="#233354" d="M183.464,29.058c-2.865-1.53-9.44-1.194-16.655,0.236l-6.555,1.194
		c-11.24,1.846-21.144,2.082-28.521-3.053l0.138-0.32c5.004,3.488,13.762,3.305,23.104,2.054l9.513-1.545
		c8.04-1.181,14.976-1.097,19.086,1.312L183.464,29.058z"/>
	<path clip-path="url(#SVGID_2_)" fill="#233354" d="M170.549,29.73c2.861,1.54,9.443,1.203,16.65-0.229l6.558-1.2
		c11.241-1.84,21.149-2.085,28.521,3.059l-0.137,0.321c-5.004-3.494-13.758-3.308-23.103-2.051l-9.511,1.537
		c-8.049,1.186-14.981,1.098-19.087-1.305L170.549,29.73z"/>
	<path clip-path="url(#SVGID_2_)" fill="#233354" d="M353.505,0.313h-0.026h-17.023h-0.028l-0.511,4.967h1.538
		c0.03-1.947,1.356-3.701,5.512-3.697h0.04v12.045h-2.48l-0.384,1.267h9.651l-0.408-1.267h-2.453V1.583h0.037
		c4.154-0.004,5.48,1.75,5.509,3.697h1.538L353.505,0.313z"/>
	<path clip-path="url(#SVGID_2_)" fill="#233354" d="M329.965,0.313h-0.025h-17.026h-0.023l-0.507,4.967h1.535
		c0.026-1.947,1.357-3.701,5.512-3.697h0.037v12.045h-2.479l-0.385,1.267h9.65l-0.409-1.267h-2.454V1.583h0.038
		c4.155-0.004,5.483,1.75,5.511,3.697h1.538L329.965,0.313z"/>
	<path clip-path="url(#SVGID_2_)" fill="#233354" d="M14.186,1.439c-0.203-0.09-0.504-0.26-0.832-0.414
		C12.461,0.595,11.233,0,9.326,0C4.269,0,0,3.482,0,7.605c0,4.118,4.269,7.6,9.326,7.6c1.999,0,3.379-0.688,4.292-1.143
		c0.169-0.082,0.351-0.18,0.508-0.25l0.763,0.856h1.535V9.118h-1.535c0,2.053-2.285,4.817-5.563,4.817
		c-4.189,0-5.066-3.441-5.066-6.329c0-2.893,0.877-6.329,5.066-6.329c3.278,0,5.563,2.552,5.563,4.407h1.535V0.585h-1.535
		L14.186,1.439z"/>
	<polygon clip-path="url(#SVGID_2_)" fill="#233354" points="35.909,1.58 38.125,1.58 38.125,6.773 29.101,6.773 29.101,1.58 
		31.31,1.58 31.714,0.312 22.731,0.312 23.125,1.591 25.18,1.58 25.18,13.629 23.125,13.629 22.731,14.894 31.714,14.894 
		31.31,13.629 29.101,13.629 29.101,8.047 38.125,8.047 38.125,13.629 35.909,13.629 35.512,14.894 44.494,14.894 44.099,13.629 
		42.049,13.629 42.049,1.58 44.099,1.58 44.494,0.312 35.512,0.312 	"/>
	<path clip-path="url(#SVGID_2_)" fill="#233354" d="M58.952,0h-1.025l-6.11,12.774c-0.416,0.855-0.544,0.855-1.248,0.855h-1.043
		l-0.393,1.266h6.815l-0.39-1.266h-1.6c-0.399,0-0.594-0.054-0.672-0.084c0.038-0.259,0.255-0.695,0.37-0.919l1-2.139h5.221
		l1.53,3.142h-2.03l-0.408,1.266H68.2l-0.391-1.266h-2.105L58.952,0z M55.269,9.212l1.95-4.2l2.052,4.2H55.269z"/>
	<path clip-path="url(#SVGID_2_)" fill="#233354" d="M113.699,9.484c0,3.115-0.965,4.145-6.456,4.145h-2.927V1.581h2.389l0.39-1.268
		h-9.482l0.389,1.268h2.39v12.049h-2.39l-0.389,1.265h17.621v-5.41H113.699z"/>
	<path clip-path="url(#SVGID_2_)" fill="#233354" d="M136.654,9.967c0,2.739-1.451,3.662-6.123,3.662h-3.259V8.122h1.51
		c2.648,0,2.648,1.187,2.648,2.365h1.536V4.374h-1.536c0,1.138-0.194,2.476-2.62,2.476h-1.538V1.58h3.817
		c4.044,0,4.51,1.911,4.51,2.984h1.584l-0.427-4.251h-15.852l0.391,1.267h2.052v12.049h-2.052l-0.391,1.266h16.777l0.509-4.928
		H136.654z"/>
	<path clip-path="url(#SVGID_2_)" fill="#233354" d="M152.786,5.892c-4.872-0.614-5.088-0.998-5.088-2.239
		c0-1.447,1.366-2.376,3.483-2.376c2.959,0,4.885,1.407,5.153,3.759l0.048,0.441h1.485V0.445h-1.4l-0.752,0.658
		c-0.167-0.055-0.358-0.135-0.572-0.232C154.338,0.532,153.123,0,151.181,0c-3.38,0-5.742,1.768-5.742,4.293
		c0,3.688,2.608,4.241,6.897,4.721c3.27,0.352,4.219,0.907,4.219,2.484c0,1.436-1.665,2.437-4.039,2.437
		c-3.471,0-5.541-2.085-5.541-4.777h-1.536v5.858h1.536l0.635-0.742c0.218,0.06,0.468,0.137,0.733,0.22
		c0.944,0.303,2.237,0.711,4.058,0.711c4.054,0,6.575-1.881,6.575-4.912C158.976,7.27,156.609,6.364,152.786,5.892"/>
	<path clip-path="url(#SVGID_2_)" fill="#233354" d="M260.35,0.313l-0.389,1.28l1.57,0.003c0,0,0.528-0.044,0.652,0.201
		c0.104,0.207-0.154,0.701-0.154,0.701l-4.199,8.172l-2.532-5.344l1.55-2.972c0.014-0.032,0.031-0.06,0.045-0.09
		c0.119-0.192,0.244-0.355,0.404-0.467c0.264-0.157,0.633-0.215,1.238-0.215h0.781l0.412-1.269h-6.388h-13.324l0.391,1.269h1.77
		l6.89,13.779h1.068l3.075-5.949l2.823,5.949h1.075l6.565-12.768c0.549-1.102,0.8-1.017,2.321-1.011l0.391-1.269H260.35z
		 M250.852,10.692l-4.486-9.11h2.926l3.065,6.173L250.852,10.692z M253.369,1.593c0.439,0.003,1.073,0.003,1.146,0.003
		c0.34-0.005,0.605-0.024,0.727,0.166c0.05,0.068,0.029,0.172-0.005,0.289l-0.177,0.353c-0.008,0.012-0.013,0.024-0.02,0.034h0.007
		l-0.641,1.301L253.369,1.593z"/>
	<polygon clip-path="url(#SVGID_2_)" fill="#233354" points="284.406,1.582 286.613,1.582 286.613,6.773 277.589,6.773 
		277.589,1.582 279.802,1.582 280.204,0.312 271.222,0.312 271.611,1.582 273.664,1.582 273.664,13.627 271.611,13.627 
		271.222,14.895 280.204,14.895 279.802,13.627 277.589,13.627 277.589,8.047 286.613,8.047 286.613,13.627 284.406,13.627 
		284,14.895 292.98,14.895 292.595,13.627 290.537,13.627 290.537,1.582 292.595,1.582 292.98,0.312 284,0.312 	"/>
	<polygon clip-path="url(#SVGID_2_)" fill="#233354" points="298.436,1.582 300.566,1.582 300.566,13.627 298.436,13.627 
		298.037,14.895 307.021,14.895 306.621,13.627 304.49,13.627 304.49,1.582 306.621,1.582 307.021,0.312 298.037,0.312 	"/>
	<path clip-path="url(#SVGID_2_)" fill="#233354" d="M190.058,0.313h-0.027h-17.022h-0.028l-0.508,4.967h1.535
		c0.027-1.947,1.357-3.703,5.509-3.697h0.041v12.045h-2.477l-0.384,1.267h9.649l-0.409-1.267h-2.451V1.583h0.037
		c4.156-0.006,5.477,1.75,5.509,3.697h1.536L190.058,0.313z"/>
	<path clip-path="url(#SVGID_2_)" fill="#233354" d="M214.578,0.313h-6.526l-0.392,1.28c0,0,1.455,0.003,1.572,0.003
		c0.334-0.005,0.603-0.026,0.725,0.166c0.096,0.148-0.068,0.453-0.201,0.676c-0.086,0.143-0.189,0.313-0.313,0.496l-2.96,4.666
		l-3.73-6.017h1.554l0.38-1.27h-9.174l0.391,1.27h2.359l4.973,7.964v4.081h-2.539l-0.408,1.267h9.814l-0.395-1.267h-2.55V9.241
		l4.431-6.836c0.321-0.483,0.619-0.829,1.277-0.823h1.32L214.578,0.313z"/>
	<path clip-path="url(#SVGID_2_)" fill="#233354" d="M91.055,13.598c-0.246,0.079-0.742,0.186-1.114,0.186
		c-0.341,0-0.771,0-0.909-0.81l-0.387-2.366c-0.318-1.928-1.344-2.806-2.803-3.232c2.242-0.621,3.45-1.696,3.45-3.137
		c0-3.913-5.442-3.913-7.229-3.913h-9.092L73.364,1.6h2.388v12.068h-2.388l-0.393,1.266h9.555l-0.394-1.266h-2.446V8.076h1.266
		c2.996,0,3.154,1.017,3.299,1.912l0.203,1.22c0.394,2.232,0.671,3.85,4.513,3.85c1.172,0,1.949-0.144,2.427-0.27
		c0.622-0.178,1.327-0.564,1.327-0.564l-0.705-1.06C92.016,13.164,91.425,13.483,91.055,13.598 M79.686,1.6h1.346
		c3.686,0,4.162,1.407,4.162,2.639c0,1.27-0.555,2.56-4.662,2.56h-0.846V1.6z"/>
	<path clip-path="url(#SVGID_2_)" fill="#233354" d="M237.522,13.51c-0.248,0.076-0.739,0.188-1.112,0.188
		c-0.344,0-0.771,0-0.91-0.813l-0.388-2.363c-0.317-1.934-1.347-2.803-2.805-3.228c2.245-0.622,3.451-1.698,3.451-3.14
		c0-3.911-5.44-3.911-7.228-3.911h-9.089l0.39,1.266h2.389v12.069h-2.389l-0.39,1.275h9.549l-0.39-1.275h-2.449V7.991h1.266
		c2.996,0,3.158,1.016,3.299,1.913l0.206,1.217c0.389,2.235,0.673,3.846,4.51,3.846c1.172,0,1.951-0.137,2.432-0.265
		c0.618-0.174,1.321-0.563,1.321-0.563l-0.703-1.061C238.482,13.078,237.891,13.401,237.522,13.51 M226.152,1.509h1.348
		c3.688,0,4.157,1.411,4.157,2.645c0,1.264-0.554,2.561-4.661,2.561h-0.844V1.509z"/>
</g>
<filter id="logoFilter" >
    <feGaussianBlur stdDeviation="5" />
  </filter>
</svg>
